<?xml version="1.0" encoding="utf-8"?>
<!-- Generator: Adobe Illustrator 27.2.0, SVG Export Plug-In . SVG Version: 6.00 Build 0)  -->
<svg version="1.1" id="Layer_1" xmlns="http://www.w3.org/2000/svg" xmlns:xlink="http://www.w3.org/1999/xlink" x="0px" y="0px"
	 viewBox="0 0 870 1750" style="enable-background:new 0 0 870 1750;" xml:space="preserve">
<style type="text/css">
	.st0{fill:none;stroke:#1E1E1C;stroke-width:5.6693;stroke-miterlimit:10;}
	.st1{fill:none;stroke:#878787;stroke-width:5.6693;stroke-miterlimit:10;}
	.st2{fill:none;stroke:#878787;stroke-width:2.8346;stroke-miterlimit:10;}
</style>
<g>
	<path class="st0" d="M728.2,1745.4c70.3,0,127.8-57.4,127.8-127.6l0-1118.2c4.3-1.7,8-3.8,8-8.7V385c0-4.9-3.6-7.3-8-9.3V131.2
		C856,61,798.5,3.6,728.2,3.6H141.8C71.5,3.6,14,61,14,131.2v91.5c-4.3,2-8,4.4-8,9.3v51.5c0,4.9,3.6,6,8,7.7l0,84.3
		c-4.3,2-8,4.4-8,9.3v105.9c0,4.9,3.6,7,8,8.7l0,35.6c-4.3,2-8,4.4-8,9.3v108.4c0,4.9,3.6,7,8,8.7l0,956.1
		c0,70.2,57.5,127.6,127.8,127.6H728.2z"/>
	<g>
		
			<ellipse transform="matrix(0.9999 -1.730012e-02 1.730012e-02 0.9999 -28.31 7.8193)" class="st1" cx="437.8" cy="1640.2" rx="62.4" ry="62.4"/>
	</g>
	<rect x="61.3" y="208.9" class="st2" width="750.5" height="1337"/>
	<path class="st2" d="M138.8,1733.1c-62.8,0-114.1-51.3-114.1-114l0-1489.8c0-62.7,51.4-114,114.1-114h591.6
		c62.8,0,114.1,51.3,114.1,114v1489.8c0,62.7-51.4,114-114.1,114H138.8z"/>
	<ellipse class="st2" cx="301.3" cy="111.7" rx="15.3" ry="15.2"/>
	<ellipse class="st2" cx="301.3" cy="111.7" rx="11" ry="11"/>
	<ellipse class="st2" cx="301.3" cy="110.9" rx="3.6" ry="3.6"/>
	<path class="st2" d="M503.4,120.8H373c-0.7,0-1.3-0.6-1.3-1.3v-13.8c0-0.7,0.6-1.3,1.3-1.3h130.3c0.7,0,1.3,0.6,1.3,1.3v13.8
		C504.7,120.2,504.1,120.8,503.4,120.8z"/>
</g>
</svg>
