<svg width="863" height="1748" viewBox="0 0 863 1748" fill="none" xmlns="http://www.w3.org/2000/svg" xmlns:xlink="http://www.w3.org/1999/xlink">
<path d="M854.454 496.252L853.516 496.631V497.642V1620.26C853.516 1689.69 796.721 1746.45 727.358 1746.45H135.642C66.2382 1746.45 9.48381 1689.64 9.48381 1620.26V659.734V658.722L8.54564 658.343C6.3955 657.474 4.62657 656.612 3.3889 655.466C2.22421 654.389 1.5 653.034 1.5 650.999V542.564C1.5 540.519 2.23309 539.049 3.43664 537.832C4.69335 536.561 6.48226 535.55 8.61254 534.567L9.48381 534.165V533.205V497.642V496.631L8.54564 496.252C6.3955 495.383 4.62657 494.52 3.38891 493.375C2.22421 492.297 1.5 490.943 1.5 488.908V382.968C1.5 380.924 2.23308 379.453 3.43664 378.236C4.69335 376.966 6.48226 375.955 8.61254 374.971L9.48381 374.569V373.609V289.299V288.287L8.54564 287.908C6.39551 287.039 4.62658 286.176 3.38891 285.031C2.22421 283.954 1.5 282.599 1.5 280.564V229.071C1.5 227.026 2.23308 225.556 3.43664 224.339C4.69335 223.068 6.48226 222.057 8.61254 221.074L9.48381 220.672V219.712V128.164C9.48381 58.7402 66.2791 1.9707 135.642 1.9707H727.358C796.762 1.9707 853.516 58.7812 853.516 128.164V373.609V374.569L854.388 374.971C856.518 375.955 858.307 376.966 859.563 378.236C860.767 379.453 861.5 380.924 861.5 382.968V488.908C861.5 490.943 860.776 492.297 859.611 493.375C858.373 494.52 856.605 495.383 854.454 496.252Z" stroke="black" stroke-width="3"/>
<path opacity="0.25" d="M489.659 1660.77C501.818 1628.53 485.548 1592.53 453.317 1580.37C421.087 1568.21 385.101 1584.48 372.942 1616.72C360.782 1648.96 377.053 1684.96 409.283 1697.12C441.514 1709.28 477.499 1693.01 489.659 1660.77Z" stroke="url(#paint0_linear_54_10)" stroke-miterlimit="10"/>
<path opacity="0.25" d="M728.564 11.1187H131.649C68.7012 11.1187 17.6719 62.1621 17.6719 125.127V1623.59C17.6719 1686.55 68.7012 1737.6 131.649 1737.6H728.564C791.511 1737.6 842.541 1686.55 842.541 1623.59V125.127C842.541 62.1621 791.511 11.1187 728.564 11.1187Z" stroke="#333333" stroke-width="2" stroke-miterlimit="10"/>
<path opacity="0.25" d="M294.985 123.838C303.414 123.838 310.246 117.004 310.246 108.573C310.246 100.142 303.414 93.3081 294.985 93.3081C286.557 93.3081 279.725 100.142 279.725 108.573C279.725 117.004 286.557 123.838 294.985 123.838Z" stroke="#333333" stroke-width="2" stroke-miterlimit="10"/>
<path opacity="0.25" d="M294.985 119.595C301.071 119.595 306.004 114.66 306.004 108.573C306.004 102.485 301.071 97.5505 294.985 97.5505C288.899 97.5505 283.966 102.485 283.966 108.573C283.966 114.66 288.899 119.595 294.985 119.595Z" stroke="#333333" stroke-width="2" stroke-miterlimit="10"/>
<path opacity="0.25" d="M294.984 111.401C297.005 111.401 298.644 109.763 298.644 107.741C298.644 105.72 297.005 104.081 294.984 104.081C292.963 104.081 291.325 105.72 291.325 107.741C291.325 109.763 292.963 111.401 294.984 111.401Z" stroke="#333333" stroke-width="2" stroke-miterlimit="10"/>
<path opacity="0.25" d="M492.668 101.377H370.748C367.74 101.377 365.301 103.816 365.301 106.826V112.316C365.301 115.325 367.74 117.765 370.748 117.765H492.668C495.676 117.765 498.115 115.325 498.115 112.316V106.826C498.115 103.816 495.676 101.377 492.668 101.377Z" stroke="#333333" stroke-width="2" stroke-miterlimit="10"/>
<mask id="mask0_54_10" style="mask-type:alpha" maskUnits="userSpaceOnUse" x="52" y="207" width="753" height="1331">
<rect x="52.9824" y="207.283" width="751.24" height="1329.9" fill="#D9D9D9"/>
</mask>

<g mask="url(#mask0_54_10)">
			<image
				id="image0_54_10"
				width="750"
				height="3820"
				:href="image"
				transform="translate(80,20)"
			/>
		</g>
<path opacity="0.25" d="M804.66 205.861H55.2627V1536.87H804.66V205.861Z" stroke="url(#paint1_linear_54_10)" stroke-width="2" stroke-miterlimit="10"/>
<defs>
<pattern id="pattern0" patternContentUnits="objectBoundingBox" width="1" height="1">
<use xlink:href="#image0_54_10" transform="scale(0.0013334 0.00026178)"/>
</pattern>
<linearGradient id="paint0_linear_54_10" x1="462.504" y1="1695.14" x2="400.104" y2="1582.31" gradientUnits="userSpaceOnUse">
<stop stop-color="white"/>
<stop offset="1" stop-color="#1D1D1B"/>
</linearGradient>
<linearGradient id="paint1_linear_54_10" x1="903.917" y1="1458.59" x2="-44.3128" y2="284.398" gradientUnits="userSpaceOnUse">
<stop stop-color="white"/>
<stop offset="1" stop-color="#1D1D1B"/>
</linearGradient>

</defs>
</svg>
